# xmcd
#
# Track frame offsets:
#	150
#	14991
#	28103
#	45394
#	61988
#	76581
#	93101
#	118100
#	136562
#
# Disc length: 2084 seconds
#
# Revision: 1
# Processed by: cddbd v1.5.2PL0 Copyright (c) Steve Scherf et al.
# Submitted via: audiograbber 1.83.01
#
DISCID=66082209
DTITLE=Kasey Chambers - Dragonfly (Disk 2)
DYEAR=2017
DGENRE=Country
TTITLE0=Shackle and Chain
TTITLE1=Dragonfly
TTITLE2=If I Died
TTITLE3=Satellite
TTITLE4=No Ordinary Man
TTITLE5=If We had a Child
TTITLE6=Annabelle
TTITLE7=The Devil's Wheel
TTITLE8=Ain't No Little Girl (FM Lounge Version)
EXTD=YEAR: 2017
EXTT0=
EXTT1=
EXTT2=
EXTT3=
EXTT4=
EXTT5=
EXTT6=
EXTT7=
EXTT8=
PLAYORDER=
